<?xml version="1.0" encoding="utf-8"?>
<!-- Generator: Adobe Illustrator 19.2.1, SVG Export Plug-In . SVG Version: 6.00 Build 0)  -->
<svg version="1.1" id="Слой_1" xmlns="http://www.w3.org/2000/svg" xmlns:xlink="http://www.w3.org/1999/xlink" x="0px" y="0px"
	 viewBox="0 0 500 500" style="enable-background:new 0 0 500 500;" xml:space="preserve">
<g>
	<path d="M375.4,400.3V139.7c-38.5-18.5-75.8-36.4-113.1-54.4h-1.5v314.4c-1.5,0-3,0-4.4,0V85.3h-1.5
		c-43.7,20.7-87.3,41.4-131.2,62.1V400H87.2v15.9h325.7v-15.6H375.4z M199.3,142c8.6-3,17.1-5.9,26.6-9.1v37.2
		c-8.2,2.4-17,4.9-26.6,7.7V142z M174.7,150.7c5.4-1.8,11.3-3.8,17.9-6.1v35.2c-5.8,1.6-11.4,3.1-17.9,4.9V150.7z M148.2,374.2
		c-3-0.2-5.9-0.4-9.2-0.6V345h9.2V374.2z M148.2,321.6h-9.1v-31.2c2.8-0.4,5.6-0.8,9.1-1.3V321.6z M139.1,258.4v-31.7
		c2.8-0.6,5.6-1.3,9.1-2.1v32.3C145.4,257.4,142.6,257.8,139.1,258.4z M148.4,192.3c-2.7,0.8-5.6,1.6-9.5,2.8v-31.6
		c3-1.1,5.9-2.1,9.5-3.3V192.3z M154.7,157.7c4-1.4,8.1-2.7,13-4.4v33.5c-3.9,1.1-8,2.3-13,3.7V157.7z M154.9,288.8
		c3.8-0.5,7.6-1,12.4-1.7v33.7h-12.4V288.8z M167.6,375.6c-4.5-0.3-8.3-0.5-12.7-0.8V345h12.7V375.6z M167.9,253.9
		c-4.4,0.6-8.3,1.2-12.8,1.8v-32.6c3.8-0.8,8-1.8,12.8-2.8V253.9z M192.5,377.1c-6.3-0.4-11.9-0.7-17.9-1.1v-30.8h17.9V377.1z
		 M192.5,319.9h-17.9v-33.3c5.9-0.6,11.6-1.2,17.9-1.9V319.9z M192.7,249.8c-5.9,0.9-11.6,1.9-18.3,2.9v-34.1c6-1.3,11.9-2.6,18.3-4
		V249.8z M199.1,212.9c8.9-2,17.7-3.9,27.1-5.9v37.2c-9,1.5-17.8,2.9-27.1,4.4V212.9z M226.1,379.1c-9.1-0.5-17.6-1-26.7-1.6v-32.4
		h26.7V379.1z M226.3,318.4c-9,0.4-17.7,0.9-27,1.3V284c8.6-0.9,17.3-1.8,27-2.8V318.4z M286.7,133c8.1,2.8,15.6,5.4,23.6,8.1v36.1
		c-8.2-2.4-15.7-4.5-23.6-6.7V133z M310.2,377.4c-8.2,0.4-15.7,0.8-23.6,1.2v-35.8h23.6V377.4z M310.3,319.2h-23.8v-37.4
		c8.1,0.9,15.8,1.7,23.8,2.5V319.2z M310.4,248.4c-8.1-1.2-15.7-2.4-23.7-3.6v-37.4c8,1.7,15.7,3.4,23.7,5.1V248.4z M316.8,143.7
		c6.4,2.2,12,4,17.8,6V184c-6.1-1.7-11.8-3.2-17.8-4.8V143.7z M316.8,214.3c6.1,1.3,11.9,2.6,17.9,3.9v34.4
		c-6.2-1-11.9-1.9-17.9-2.8V214.3z M316.9,285.1c6.1,0.5,11.6,1,17.6,1.5v33.9h-17.6V285.1z M334.7,375.9
		c-5.9,0.4-11.4,0.7-17.7,1.1v-34.3h17.7V375.9z M354.5,374.7c-4.1,0.2-8,0.5-12.5,0.7v-32.8h12.5V374.7z M354.6,321.4h-12.5v-33.8
		c4.3,0.5,8.3,0.9,12.5,1.4V321.4z M354.7,255.5c-4.4-0.5-8.4-1-12.7-1.6v-34c4.6,1,8.5,1.9,12.7,2.9V255.5z M354.7,189.6
		c-4.5-1.2-8.4-2.2-12.7-3.3v-33.9c4.6,1.6,8.6,2.9,12.7,4.3V189.6z"/>
</g>
</svg>
